<?xml version="1.0" standalone="no"?>
<!DOCTYPE svg PUBLIC "-//W3C//DTD SVG 1.1//EN" "http://www.w3.org/Graphics/SVG/1.1/DTD/svg11.dtd">
<svg width="835" height="1463" xmlns="http://www.w3.org/2000/svg" version="1.1">
 <line x1="210" x2="210" y1="200" y2="1400" style="stroke:rgb(200,200,200); stroke-width:1" />
 <text x="210" y="190" font-family="Roboto" font-size="20" text-anchor="middle" fill="black">25%</text>
 <line x1="410" x2="410" y1="200" y2="1400" style="stroke:rgb(200,200,200); stroke-width:1" />
 <text x="410" y="190" font-family="Roboto" font-size="20" text-anchor="middle" fill="black">50%</text>
 <line x1="610" x2="610" y1="200" y2="1400" style="stroke:rgb(200,200,200); stroke-width:1" />
 <text x="610" y="190" font-family="Roboto" font-size="20" text-anchor="middle" fill="black">75%</text>
 <line x1="808" x2="808" y1="200" y2="1400" style="stroke:rgb(200,200,200); stroke-width:1" />
 <text x="808" y="190" font-family="Roboto" font-size="20" text-anchor="middle" fill="black">100%</text>
 <rect x="15" y="130" width="40" height="20" style="fill:rgb(51, 153, 51);stroke-width:1;stroke:rgb(255,255,255)" />
 <text x="60" y="147" font-family="Roboto" font-size="22" fill="black">Low</text>
 <rect x="135" y="130" width="40" height="20" style="fill:rgb(255, 153, 0);stroke-width:1;stroke:rgb(255,255,255)" />
 <text x="180" y="147" font-family="Roboto" font-size="22" fill="black">Medium</text>
 <rect x="285" y="130" width="40" height="20" style="fill:rgb(204, 0, 0);stroke-width:1;stroke:rgb(255,255,255)" />
 <text x="330" y="147" font-family="Roboto" font-size="22" fill="black">High</text>
 <text x="10" y="50" font-family="Roboto" font-size="27" fill="black">Q3: What is the likelihood of the adversary knowing that a specific</text>
 <text x="10" y="85" font-family="Roboto" font-size="27" fill="black">subject is in the data set / report?</text>
 <rect x=" 10" y=" 250" width="654.54545455" height=" 55" style="fill:rgb(51, 153, 51);stroke-width:2;stroke:rgb(255,255,255)" fill="url(#diag1)" />
 <rect x="664.54545455" y=" 250" width="109.09090909" height=" 55" style="fill:rgb(255, 153, 0);stroke-width:2;stroke:rgb(255,255,255)" />
 <rect x="773.63636364" y=" 250" width="36.363636364" height=" 55" style="fill:rgb(204, 0, 0);stroke-width:2;stroke:rgb(255,255,255)" />
 <text x="15" y="246" font-family="Roboto" font-size="25" fill="black" >University students / Academic researchers</text>
 <rect x=" 10" y=" 350" width="472.72727273" height=" 55" style="fill:rgb(51, 153, 51);stroke-width:2;stroke:rgb(255,255,255)" fill="url(#diag1)" />
 <rect x="482.72727273" y=" 350" width="290.90909091" height=" 55" style="fill:rgb(255, 153, 0);stroke-width:2;stroke:rgb(255,255,255)" />
 <rect x="773.63636364" y=" 350" width="36.363636364" height=" 55" style="fill:rgb(204, 0, 0);stroke-width:2;stroke:rgb(255,255,255)" />
 <text x="15" y="346" font-family="Roboto" font-size="25" fill="black" >Other sponsors/vendors (competitors)</text>
 <rect x=" 10" y=" 450" width="533.33333333" height=" 55" style="fill:rgb(51, 153, 51);stroke-width:2;stroke:rgb(255,255,255)" fill="url(#diag1)" />
 <rect x="543.33333333" y=" 450" width="190.47619048" height=" 55" style="fill:rgb(255, 153, 0);stroke-width:2;stroke:rgb(255,255,255)" />
 <rect x="733.80952381" y=" 450" width=" 76.19047619" height=" 55" style="fill:rgb(204, 0, 0);stroke-width:2;stroke:rgb(255,255,255)" />
 <text x="15" y="446" font-family="Roboto" font-size="25" fill="black" >Regulatory bodies</text>
 <rect x=" 10" y=" 550" width="419.04761905" height=" 55" style="fill:rgb(51, 153, 51);stroke-width:2;stroke:rgb(255,255,255)" fill="url(#diag1)" />
 <rect x="429.04761905" y=" 550" width="304.76190476" height=" 55" style="fill:rgb(255, 153, 0);stroke-width:2;stroke:rgb(255,255,255)" />
 <rect x="733.80952381" y=" 550" width=" 76.19047619" height=" 55" style="fill:rgb(204, 0, 0);stroke-width:2;stroke:rgb(255,255,255)" />
 <text x="15" y="546" font-family="Roboto" font-size="25" fill="black" >Employers</text>
 <rect x=" 10" y=" 650" width=" 480" height=" 55" style="fill:rgb(51, 153, 51);stroke-width:2;stroke:rgb(255,255,255)" fill="url(#diag1)" />
 <rect x=" 490" y=" 650" width=" 240" height=" 55" style="fill:rgb(255, 153, 0);stroke-width:2;stroke:rgb(255,255,255)" />
 <rect x=" 730" y=" 650" width=" 80" height=" 55" style="fill:rgb(204, 0, 0);stroke-width:2;stroke:rgb(255,255,255)" />
 <text x="15" y="646" font-family="Roboto" font-size="25" fill="black" >Lawyers</text>
 <rect x=" 10" y=" 750" width="472.72727273" height=" 55" style="fill:rgb(51, 153, 51);stroke-width:2;stroke:rgb(255,255,255)" fill="url(#diag1)" />
 <rect x="482.72727273" y=" 750" width="218.18181818" height=" 55" style="fill:rgb(255, 153, 0);stroke-width:2;stroke:rgb(255,255,255)" />
 <rect x="700.90909091" y=" 750" width="109.09090909" height=" 55" style="fill:rgb(204, 0, 0);stroke-width:2;stroke:rgb(255,255,255)" />
 <text x="15" y="746" font-family="Roboto" font-size="25" fill="black" >Journalists</text>
 <rect x=" 10" y=" 850" width="457.14285714" height=" 55" style="fill:rgb(51, 153, 51);stroke-width:2;stroke:rgb(255,255,255)" fill="url(#diag1)" />
 <rect x="467.14285714" y=" 850" width="228.57142857" height=" 55" style="fill:rgb(255, 153, 0);stroke-width:2;stroke:rgb(255,255,255)" />
 <rect x="695.71428571" y=" 850" width="114.28571429" height=" 55" style="fill:rgb(204, 0, 0);stroke-width:2;stroke:rgb(255,255,255)" />
 <text x="15" y="846" font-family="Roboto" font-size="25" fill="black" >Hackers (demonstration attacks)</text>
 <rect x=" 10" y=" 950" width=" 360" height=" 55" style="fill:rgb(51, 153, 51);stroke-width:2;stroke:rgb(255,255,255)" fill="url(#diag1)" />
 <rect x=" 370" y=" 950" width=" 320" height=" 55" style="fill:rgb(255, 153, 0);stroke-width:2;stroke:rgb(255,255,255)" />
 <rect x=" 690" y=" 950" width=" 120" height=" 55" style="fill:rgb(204, 0, 0);stroke-width:2;stroke:rgb(255,255,255)" />
 <text x="15" y="946" font-family="Roboto" font-size="25" fill="black" >Insurance Companies</text>
 <rect x=" 10" y=" 1050" width="254.54545455" height=" 55" style="fill:rgb(51, 153, 51);stroke-width:2;stroke:rgb(255,255,255)" fill="url(#diag1)" />
 <rect x="264.54545455" y=" 1050" width=" 400" height=" 55" style="fill:rgb(255, 153, 0);stroke-width:2;stroke:rgb(255,255,255)" />
 <rect x="664.54545455" y=" 1050" width="145.45454545" height=" 55" style="fill:rgb(204, 0, 0);stroke-width:2;stroke:rgb(255,255,255)" />
 <text x="15" y="1046" font-family="Roboto" font-size="25" fill="black" >Acquaintances / Colleagues</text>
 <rect x=" 10" y=" 1150" width="109.09090909" height=" 55" style="fill:rgb(51, 153, 51);stroke-width:2;stroke:rgb(255,255,255)" fill="url(#diag1)" />
 <rect x="119.09090909" y=" 1150" width="327.27272727" height=" 55" style="fill:rgb(255, 153, 0);stroke-width:2;stroke:rgb(255,255,255)" />
 <rect x="446.36363636" y=" 1150" width="363.63636364" height=" 55" style="fill:rgb(204, 0, 0);stroke-width:2;stroke:rgb(255,255,255)" />
 <text x="15" y="1146" font-family="Roboto" font-size="25" fill="black" >Doctors</text>
 <rect x=" 10" y=" 1250" width="109.09090909" height=" 55" style="fill:rgb(51, 153, 51);stroke-width:2;stroke:rgb(255,255,255)" fill="url(#diag1)" />
 <rect x="119.09090909" y=" 1250" width="290.90909091" height=" 55" style="fill:rgb(255, 153, 0);stroke-width:2;stroke:rgb(255,255,255)" />
 <rect x=" 410" y=" 1250" width=" 400" height=" 55" style="fill:rgb(204, 0, 0);stroke-width:2;stroke:rgb(255,255,255)" />
 <text x="15" y="1246" font-family="Roboto" font-size="25" fill="black" >Family members</text>
 <rect x=" 10" y=" 1350" width="36.363636364" height=" 55" style="fill:rgb(51, 153, 51);stroke-width:2;stroke:rgb(255,255,255)" fill="url(#diag1)" />
 <rect x="46.363636364" y=" 1350" width="72.727272727" height=" 55" style="fill:rgb(255, 153, 0);stroke-width:2;stroke:rgb(255,255,255)" />
 <rect x="119.09090909" y=" 1350" width="690.90909091" height=" 55" style="fill:rgb(204, 0, 0);stroke-width:2;stroke:rgb(255,255,255)" />
 <text x="15" y="1346" font-family="Roboto" font-size="25" fill="black" >Patients themselves</text>
 <text x="10" y="1459" font-family="Roboto" font-size="24" fill="black" >Note: Answered as "Don't know" or missing, across all categories: 6.9%.</text>
 <text x="13" y="190" font-family="Roboto" font-size="20" text-anchor="middle" fill="black">0%</text>
 <line x1="10" x2="10" y1="200" y2="1412" style="stroke:rgb(120,120,120); stroke-width:2" />
</svg>
