<?xml version="1.0" standalone="no"?>
<!DOCTYPE svg PUBLIC "-//W3C//DTD SVG 1.1//EN" "http://www.w3.org/Graphics/SVG/1.1/DTD/svg11.dtd">
<svg width="835" height="1463" xmlns="http://www.w3.org/2000/svg" version="1.1">
 <line x1="210" x2="210" y1="200" y2="1400" style="stroke:rgb(200,200,200); stroke-width:1" />
 <text x="210" y="190" font-family="Roboto" font-size="20" text-anchor="middle" fill="black">25%</text>
 <line x1="410" x2="410" y1="200" y2="1400" style="stroke:rgb(200,200,200); stroke-width:1" />
 <text x="410" y="190" font-family="Roboto" font-size="20" text-anchor="middle" fill="black">50%</text>
 <line x1="610" x2="610" y1="200" y2="1400" style="stroke:rgb(200,200,200); stroke-width:1" />
 <text x="610" y="190" font-family="Roboto" font-size="20" text-anchor="middle" fill="black">75%</text>
 <line x1="808" x2="808" y1="200" y2="1400" style="stroke:rgb(200,200,200); stroke-width:1" />
 <text x="808" y="190" font-family="Roboto" font-size="20" text-anchor="middle" fill="black">100%</text>
 <rect x="15" y="130" width="40" height="20" style="fill:rgb(51, 153, 51);stroke-width:1;stroke:rgb(255,255,255)" />
 <text x="60" y="147" font-family="Roboto" font-size="22" fill="black">Low</text>
 <rect x="135" y="130" width="40" height="20" style="fill:rgb(255, 153, 0);stroke-width:1;stroke:rgb(255,255,255)" />
 <text x="180" y="147" font-family="Roboto" font-size="22" fill="black">Medium</text>
 <rect x="285" y="130" width="40" height="20" style="fill:rgb(204, 0, 0);stroke-width:1;stroke:rgb(255,255,255)" />
 <text x="330" y="147" font-family="Roboto" font-size="22" fill="black">High</text>
 <text x="10" y="30" font-family="Roboto" font-size="27" fill="black">Q6: In the event of successful re-identification, what is the likelihood</text>
 <text x="10" y="65" font-family="Roboto" font-size="27" fill="black">that the adversary will intend to harm the re-identified individual or</text>
 <text x="10" y="100" font-family="Roboto" font-size="27" fill="black">the sponsor of the trial?</text>
 <rect x=" 10" y=" 250" width="685.71428571" height=" 55" style="fill:rgb(51, 153, 51);stroke-width:2;stroke:rgb(255,255,255)" fill="url(#diag1)" />
 <rect x="695.71428571" y=" 250" width=" 76.19047619" height=" 55" style="fill:rgb(255, 153, 0);stroke-width:2;stroke:rgb(255,255,255)" />
 <rect x=" 771.9047619" y=" 250" width="38.095238095" height=" 55" style="fill:rgb(204, 0, 0);stroke-width:2;stroke:rgb(255,255,255)" />
 <text x="15" y="246" font-family="Roboto" font-size="25" fill="black" >Patients themselves</text>
 <rect x=" 10" y=" 350" width=" 440" height=" 55" style="fill:rgb(51, 153, 51);stroke-width:2;stroke:rgb(255,255,255)" fill="url(#diag1)" />
 <rect x=" 450" y=" 350" width=" 320" height=" 55" style="fill:rgb(255, 153, 0);stroke-width:2;stroke:rgb(255,255,255)" />
 <rect x=" 770" y=" 350" width=" 40" height=" 55" style="fill:rgb(204, 0, 0);stroke-width:2;stroke:rgb(255,255,255)" />
 <text x="15" y="346" font-family="Roboto" font-size="25" fill="black" >Family members</text>
 <rect x=" 10" y=" 450" width=" 440" height=" 55" style="fill:rgb(51, 153, 51);stroke-width:2;stroke:rgb(255,255,255)" fill="url(#diag1)" />
 <rect x=" 450" y=" 450" width=" 320" height=" 55" style="fill:rgb(255, 153, 0);stroke-width:2;stroke:rgb(255,255,255)" />
 <rect x=" 770" y=" 450" width=" 40" height=" 55" style="fill:rgb(204, 0, 0);stroke-width:2;stroke:rgb(255,255,255)" />
 <text x="15" y="446" font-family="Roboto" font-size="25" fill="black" >Acquaintances / Colleagues</text>
 <rect x=" 10" y=" 550" width="421.05263158" height=" 55" style="fill:rgb(51, 153, 51);stroke-width:2;stroke:rgb(255,255,255)" fill="url(#diag1)" />
 <rect x="431.05263158" y=" 550" width="336.84210526" height=" 55" style="fill:rgb(255, 153, 0);stroke-width:2;stroke:rgb(255,255,255)" />
 <rect x="767.89473684" y=" 550" width="42.105263158" height=" 55" style="fill:rgb(204, 0, 0);stroke-width:2;stroke:rgb(255,255,255)" />
 <text x="15" y="546" font-family="Roboto" font-size="25" fill="black" >Employers</text>
 <rect x=" 10" y=" 650" width="723.80952381" height=" 55" style="fill:rgb(51, 153, 51);stroke-width:2;stroke:rgb(255,255,255)" fill="url(#diag1)" />
 <rect x="733.80952381" y=" 650" width=" 76.19047619" height=" 55" style="fill:rgb(255, 153, 0);stroke-width:2;stroke:rgb(255,255,255)" />
 <rect x=" 810" y=" 650" width=" 0" height=" 55" style="fill:rgb(204, 0, 0);stroke-width:2;stroke:rgb(255,255,255)" />
 <text x="15" y="646" font-family="Roboto" font-size="25" fill="black" >Doctors</text>
 <rect x=" 10" y=" 750" width=" 200" height=" 55" style="fill:rgb(51, 153, 51);stroke-width:2;stroke:rgb(255,255,255)" fill="url(#diag1)" />
 <rect x=" 210" y=" 750" width=" 320" height=" 55" style="fill:rgb(255, 153, 0);stroke-width:2;stroke:rgb(255,255,255)" />
 <rect x=" 530" y=" 750" width=" 280" height=" 55" style="fill:rgb(204, 0, 0);stroke-width:2;stroke:rgb(255,255,255)" />
 <text x="15" y="746" font-family="Roboto" font-size="25" fill="black" >Lawyers</text>
 <rect x=" 10" y=" 850" width=" 80" height=" 55" style="fill:rgb(51, 153, 51);stroke-width:2;stroke:rgb(255,255,255)" fill="url(#diag1)" />
 <rect x=" 90" y=" 850" width=" 440" height=" 55" style="fill:rgb(255, 153, 0);stroke-width:2;stroke:rgb(255,255,255)" />
 <rect x=" 530" y=" 850" width=" 280" height=" 55" style="fill:rgb(204, 0, 0);stroke-width:2;stroke:rgb(255,255,255)" />
 <text x="15" y="846" font-family="Roboto" font-size="25" fill="black" >Journalists</text>
 <rect x=" 10" y=" 950" width=" 160" height=" 55" style="fill:rgb(51, 153, 51);stroke-width:2;stroke:rgb(255,255,255)" fill="url(#diag1)" />
 <rect x=" 170" y=" 950" width=" 400" height=" 55" style="fill:rgb(255, 153, 0);stroke-width:2;stroke:rgb(255,255,255)" />
 <rect x=" 570" y=" 950" width=" 240" height=" 55" style="fill:rgb(204, 0, 0);stroke-width:2;stroke:rgb(255,255,255)" />
 <text x="15" y="946" font-family="Roboto" font-size="25" fill="black" >Insurance Companies</text>
 <rect x=" 10" y=" 1050" width="647.61904762" height=" 55" style="fill:rgb(51, 153, 51);stroke-width:2;stroke:rgb(255,255,255)" fill="url(#diag1)" />
 <rect x="657.61904762" y=" 1050" width="114.28571429" height=" 55" style="fill:rgb(255, 153, 0);stroke-width:2;stroke:rgb(255,255,255)" />
 <rect x=" 771.9047619" y=" 1050" width="38.095238095" height=" 55" style="fill:rgb(204, 0, 0);stroke-width:2;stroke:rgb(255,255,255)" />
 <text x="15" y="1046" font-family="Roboto" font-size="25" fill="black" >University students / Academic researchers</text>
 <rect x=" 10" y=" 1150" width="618.18181818" height=" 55" style="fill:rgb(51, 153, 51);stroke-width:2;stroke:rgb(255,255,255)" fill="url(#diag1)" />
 <rect x="628.18181818" y=" 1150" width="181.81818182" height=" 55" style="fill:rgb(255, 153, 0);stroke-width:2;stroke:rgb(255,255,255)" />
 <rect x=" 810" y=" 1150" width=" 0" height=" 55" style="fill:rgb(204, 0, 0);stroke-width:2;stroke:rgb(255,255,255)" />
 <text x="15" y="1146" font-family="Roboto" font-size="25" fill="black" >Regulatory bodies</text>
 <rect x=" 10" y=" 1250" width="472.72727273" height=" 55" style="fill:rgb(51, 153, 51);stroke-width:2;stroke:rgb(255,255,255)" fill="url(#diag1)" />
 <rect x="482.72727273" y=" 1250" width="290.90909091" height=" 55" style="fill:rgb(255, 153, 0);stroke-width:2;stroke:rgb(255,255,255)" />
 <rect x="773.63636364" y=" 1250" width="36.363636364" height=" 55" style="fill:rgb(204, 0, 0);stroke-width:2;stroke:rgb(255,255,255)" />
 <text x="15" y="1246" font-family="Roboto" font-size="25" fill="black" >Other sponsors/vendors (competitors)</text>
 <rect x=" 10" y=" 1350" width="114.28571429" height=" 55" style="fill:rgb(51, 153, 51);stroke-width:2;stroke:rgb(255,255,255)" fill="url(#diag1)" />
 <rect x="124.28571429" y=" 1350" width="190.47619048" height=" 55" style="fill:rgb(255, 153, 0);stroke-width:2;stroke:rgb(255,255,255)" />
 <rect x="314.76190476" y=" 1350" width="495.23809524" height=" 55" style="fill:rgb(204, 0, 0);stroke-width:2;stroke:rgb(255,255,255)" />
 <text x="15" y="1346" font-family="Roboto" font-size="25" fill="black" >Hackers (demonstration attacks)</text>
 <text x="10" y="1459" font-family="Roboto" font-size="24" fill="black" >Note: Answered as "Don't know" or missing, across all categories: 10.5%.</text>
 <text x="13" y="190" font-family="Roboto" font-size="20" text-anchor="middle" fill="black">0%</text>
 <line x1="10" x2="10" y1="200" y2="1412" style="stroke:rgb(120,120,120); stroke-width:2" />
</svg>
